<svg width="20" height="20" viewBox="0 0 20 20" fill="none" xmlns="http://www.w3.org/2000/svg">
<rect width="20" height="20" rx="4" fill="white"/>
<path d="M14.913 7.01616L8.67614 13.9039C8.6209 13.9654 8.54571 14 8.46727 14C8.38883 14 8.31363 13.9654 8.25839 13.9039L5.08702 10.4015C5.03133 10.3405 5 10.2575 5 10.1709C5 10.0842 5.03133 10.0012 5.08702 9.9402L5.49889 9.48535C5.55413 9.42384 5.62932 9.38925 5.70776 9.38925C5.7862 9.38925 5.8614 9.42384 5.91664 9.48535L8.46433 12.2989L14.0834 6.09346C14.1998 5.96885 14.3847 5.96885 14.5011 6.09346L14.913 6.55481C14.9687 6.61582 15 6.69886 15 6.78549C15 6.87211 14.9687 6.95516 14.913 7.01616Z" fill="#0070C0"/>
</svg>
